HIERARCHY
ROOT Hips
{
 OFFSET 0.000000 0.000000 0.000000
 CHANNELS 6 Xposition Yposition Zposition Yrotation Xrotation Zrotation
 JOINT Chest
 {
  OFFSET 0.000000 9.585900 0.002600
  CHANNELS 3 Yrotation Xrotation Zrotation
  JOINT Chest2
  {
   OFFSET 0.000000 9.601200 -0.005300
   CHANNELS 3 Yrotation Xrotation Zrotation
   JOINT Chest3
   {
    OFFSET 0.000000 9.561800 0.000000
    CHANNELS 3 Yrotation Xrotation Zrotation
    JOINT Chest4
    {
     OFFSET 0.000000 9.552100 0.000000
     CHANNELS 3 Yrotation Xrotation Zrotation
     JOINT Neck
     {
      OFFSET 0.000000 14.453000 0.000000
      CHANNELS 3 Yrotation Xrotation Zrotation
      JOINT Head
      {
       OFFSET 0.000000 8.936500 -0.011300
       CHANNELS 3 Yrotation Xrotation Zrotation
       End Site
       {
        OFFSET 0.000000 17.073600 -0.006000
       }
      }
     }
     JOINT RightCollar
     {
      OFFSET -2.921100 9.558500 0.000000
      CHANNELS 3 Yrotation Xrotation Zrotation
      JOINT RightShoulder
      {
       OFFSET -13.519700 0.000000 0.000000
       CHANNELS 3 Yrotation Xrotation Zrotation
       JOINT RightElbow
       {
        OFFSET 0.000000 -29.696600 0.000000
        CHANNELS 3 Yrotation Xrotation Zrotation
        JOINT RightWrist
        {
         OFFSET 0.000000 -24.004700 0.000000
         CHANNELS 3 Yrotation Xrotation Zrotation
         End Site
         {
          OFFSET 0.000000 -17.728500 0.000000
         }
        }
       }
      }
     }
     JOINT LeftCollar
     {
      OFFSET 2.921100 9.558500 0.000000
      CHANNELS 3 Yrotation Xrotation Zrotation
      JOINT LeftShoulder
      {
       OFFSET 13.519700 0.000000 0.000000
       CHANNELS 3 Yrotation Xrotation Zrotation
       JOINT LeftElbow
       {
        OFFSET 0.000000 -29.696600 0.000000
        CHANNELS 3 Yrotation Xrotation Zrotation
        JOINT LeftWrist
        {
         OFFSET 0.000000 -24.004700 0.000000
         CHANNELS 3 Yrotation Xrotation Zrotation
         End Site
         {
          OFFSET 0.000000 -17.728500 0.000000
         }
        }
       }
      }
     }
    }
   }
  }
 }
 JOINT RightHip
 {
  OFFSET -7.771700 -0.012900 -0.001300
  CHANNELS 3 Yrotation Xrotation Zrotation
  JOINT RightKnee
  {
   OFFSET 0.000000 -40.869800 0.001200
   CHANNELS 3 Yrotation Xrotation Zrotation
   JOINT RightAnkle
   {
    OFFSET 0.000000 -39.717900 0.002100
    CHANNELS 3 Yrotation Xrotation Zrotation
    JOINT RightToe
    {
     OFFSET 0.000000 -4.965400 11.033500
     CHANNELS 3 Yrotation Xrotation Zrotation
     End Site
     {
      OFFSET 0.000000 -1.423100 5.872300
     }
    }
   }
  }
 }
 JOINT LeftHip
 {
  OFFSET 7.771700 -0.012900 -0.001300
  CHANNELS 3 Yrotation Xrotation Zrotation
  JOINT LeftKnee
  {
   OFFSET 0.000000 -40.869800 0.001200
   CHANNELS 3 Yrotation Xrotation Zrotation
   JOINT LeftAnkle
   {
    OFFSET 0.000000 -39.717900 0.002100
    CHANNELS 3 Yrotation Xrotation Zrotation
    JOINT LeftToe
    {
     OFFSET 0.000000 -4.965400 11.033500
     CHANNELS 3 Yrotation Xrotation Zrotation
     End Site
     {
      OFFSET 0.000000 -1.423100 5.872300
     }
    }
   }
  }
 }
}
MOTION
Frames: 9
Frame Time: 0.008333
0.000000 85.388000 0.000000 0.000000 -5.767877 0.000000 0.000000 11.653817 0.000000 0.000000 -5.885947 0.000000 0.000000 -0.000000 0.000000 0.000000 -0.000000 0.000000 0.000000 12.528835 0.000000 0.000000 0.711642 0.000000 0.000000 -0.000000 0.000000 0.000000 0.000000 -90.000000 0.000000 -2.309062 0.000000 0.000000 2.309062 0.000000 0.000000 -0.000000 0.000000 0.000000 -0.000000 90.000000 0.000000 -2.309062 0.000000 0.000000 2.309062 0.000000 0.000000 8.520406 0.000000 0.000000 1.905762 0.000000 -0.000000 -4.658285 0.000000 0.000000 -0.000000 0.000000 0.000000 8.520406 0.000000 0.000000 1.905762 0.000000 -0.000000 -4.658285 0.000000 0.000000 -0.000000 0.000000
-7.290763 52.076469 29.638915 173.404068 -38.402257 -1.918482 3.758698 23.783465 3.042795 0.430718 3.624220 0.540312 0.732921 5.889292 0.894451 2.906367 19.843102 3.441096 1.460125 15.369653 -2.242078 3.546620 -7.156219 -4.720044 -2.285030 -4.551663 -3.850749 9.391481 -19.971484 -0.908050 -165.321773 -61.430712 -169.384076 -0.477692 -17.913795 -17.922159 -8.621158 -3.980280 0.430412 -5.827847 -18.061092 0.241533 150.820475 -58.612596 -174.478707 1.492140 -27.294220 16.243427 -4.105184 -42.647761 1.829856 -156.615335 85.354866 -151.590576 1.948630 -12.605241 -3.676676 0.346161 -0.642331 0.160849 0.043009 -39.292516 4.336499 72.391566 83.140511 61.520016 -6.816132 -12.716260 10.237506 0.429277 1.590971 0.195251
-7.293984 52.076218 29.635479 173.416220 -38.402641 -1.935601 3.777851 23.828000 3.066980 0.455273 3.695061 0.551345 0.727874 5.890400 0.899563 2.913478 19.856650 3.456310 1.472729 15.453004 -2.175671 3.541701 -7.004325 -4.596766 -2.293834 -4.537699 -3.863682 9.381218 -20.200824 -1.005513 -165.635444 -60.691576 -169.073136 -0.430555 -18.116831 -17.959076 -8.651735 -3.952129 0.470783 -5.812632 -18.284006 0.328807 151.822627 -58.016289 -175.463308 1.327564 -27.451875 16.235764 -4.097768 -42.645477 1.825749 -156.613469 85.350333 -151.573720 1.949878 -12.607685 -3.671927 0.346883 -0.645023 0.159637 0.032637 -39.293021 4.344401 72.421098 83.148060 61.546181 -6.802511 -12.721359 10.243423 0.426482 1.588755 0.196033
-7.297871 52.075829 29.631514 173.433286 -38.398488 -1.955562 3.829307 23.937732 3.107894 0.440653 3.675278 0.554056 0.726162 5.900046 0.904820 2.929525 19.893691 3.475096 1.469343 15.527079 -2.106534 3.506561 -6.870466 -4.463184 -2.301717 -4.522393 -3.870848 9.350284 -20.410935 -1.095944 -165.926085 -59.969699 -168.764597 -0.376260 -18.304485 -17.999204 -8.682146 -3.913854 0.512900 -5.805969 -18.491466 0.415959 152.622137 -57.436532 -176.281952 1.181085 -27.511870 16.176486 -4.110894 -42.646704 1.831321 -156.673206 85.348726 -151.629821 1.946466 -12.609870 -3.667433 0.348650 -0.648793 0.158145 0.023295 -39.299466 4.351547 72.470246 83.155608 61.594640 -6.804402 -12.722295 10.254228 0.413982 1.583744 0.193834
-7.300392 52.074934 29.628061 173.460595 -38.383439 -1.993043 3.845026 23.988126 3.141667 0.444311 3.694498 0.558480 0.732104 5.928952 0.911815 2.945158 19.932354 3.492451 1.451157 15.591080 -2.036571 3.444345 -6.756053 -4.323287 -2.302843 -4.500532 -3.873855 9.298196 -20.603280 -1.180597 -166.221018 -59.268558 -168.441747 -0.317418 -18.485209 -18.045051 -8.709174 -3.862027 0.555508 -5.806431 -18.684193 0.502030 153.218662 -56.875081 -176.941711 1.059005 -27.459831 16.054794 -4.127205 -42.657024 1.842935 -156.757200 85.352221 -151.697605 1.942928 -12.608477 -3.663145 0.348923 -0.654844 0.156550 -0.005237 -39.317997 4.375272 72.546254 83.162281 61.665295 -6.794961 -12.729659 10.265190 0.405834 1.581502 0.192130
-7.304500 52.074296 29.623878 173.477627 -38.364666 -2.015770 3.863806 24.043371 3.164435 0.448038 3.714260 0.562641 0.738103 5.958719 0.918514 2.960561 19.972234 3.508292 1.422252 15.647468 -1.966288 3.362577 -6.656234 -4.179359 -2.297894 -4.469545 -3.877390 9.243914 -20.778711 -1.258432 -166.566411 -58.589004 -168.080640 -0.251469 -18.655575 -18.099813 -8.736014 -3.797457 0.596248 -5.807675 -18.863770 0.589827 153.599617 -56.331245 -177.437274 0.956687 -27.290451 15.870547 -4.100767 -42.672424 1.827724 -156.858891 85.351711 -151.766525 1.933964 -12.613825 -3.658614 0.350399 -0.654577 0.158444 -0.013071 -39.340256 4.389457 72.584272 83.173608 61.707173 -6.820386 -12.722067 10.269046 0.413818 1.571852 0.195865
-7.308184 52.074245 29.619110 173.495391 -38.343946 -2.041865 3.882628 24.103640 3.188734 0.439855 3.681431 0.565678 0.756407 6.042835 0.925707 2.977379 20.013307 3.522813 1.390411 15.701166 -1.892402 3.274154 -6.561470 -4.027958 -2.291995 -4.428984 -3.881969 9.209585 -20.933573 -1.328431 -166.993952 -57.932535 -167.666203 -0.175995 -18.804779 -18.163010 -8.766154 -3.721501 0.635567 -5.811228 -19.031776 0.688329 153.751819 -55.808692 -177.753677 0.872695 -27.016259 15.628164 -4.113516 -42.687511 1.834265 -156.913942 85.352200 -151.808868 1.936807 -12.617940 -3.660194 0.350006 -0.656226 0.159177 0.008714 -39.366169 4.385668 72.601868 83.184654 61.752809 -6.832171 -12.716181 10.267881 0.425748 1.561679 0.208716
-7.311671 52.074743 29.613903 173.502210 -38.322116 -2.062448 3.911515 24.167998 3.212359 0.431834 3.644945 0.570276 0.775682 6.133086 0.930637 2.996567 20.056302 3.535608 1.363916 15.758238 -1.809328 3.192456 -6.460419 -3.861430 -2.289481 -4.380932 -3.883980 9.203370 -21.065768 -1.391283 -167.518389 -57.302483 -167.197589 -0.098526 -18.918631 -18.214266 -8.800299 -3.635889 0.675382 -5.824250 -19.189567 0.807440 153.689000 -55.310983 -177.889207 0.820906 -26.663777 15.324087 -4.130702 -42.704618 1.852176 -156.962831 85.352918 -151.855294 1.937903 -12.618758 -3.660322 0.347969 -0.659817 0.160028 0.018215 -39.389891 4.394511 72.683889 83.189903 61.840654 -6.831184 -12.719722 10.280764 0.413850 1.552827 0.205912
-7.311557 52.077929 29.606044 173.485028 -38.322222 -2.087974 3.973039 24.256354 3.256535 0.454952 3.750013 0.574783 0.767374 6.085877 0.934901 3.019156 20.102780 3.546407 1.345830 15.824365 -1.712677 3.121396 -6.342687 -3.672453 -2.295275 -4.326726 -3.880060 9.219166 -21.179319 -1.442880 -168.148471 -56.699790 -166.663863 -0.024395 -18.976223 -18.237509 -8.838403 -3.543764 0.719028 -5.849500 -19.337075 0.945251 153.454538 -54.840421 -177.876861 0.801867 -26.265217 14.979523 -4.129416 -42.694711 1.877722 -157.123122 85.362272 -151.992429 1.939917 -12.620723 -3.668567 0.347576 -0.661290 0.157990 0.032415 -39.391805 4.432113 72.890886 83.201168 62.044318 -6.805968 -12.734433 10.311014 0.379696 1.534858 0.184769
